<svg width="60" height="60" viewBox="0 0 60 60" fill="none" xmlns="http://www.w3.org/2000/svg">
<path opacity="0.2" d="M22.5 56.25L26.25 37.5L11.25 31.875L37.5 3.75L33.75 22.5L48.75 28.125L22.5 56.25Z" fill="#F0CE90"/>
<path d="M50.5756 27.696C50.5046 27.3955 50.3605 27.1171 50.1561 26.8857C49.9516 26.6543 49.6932 26.4769 49.4037 26.3694L35.9014 21.3046L39.3373 4.11785C39.4151 3.71853 39.3609 3.30473 39.1829 2.9389C39.0049 2.57308 38.7128 2.27507 38.3506 2.08986C37.9883 1.90464 37.5757 1.84227 37.1749 1.91214C36.7741 1.98202 36.4069 2.18036 36.1287 2.47723L9.87874 30.6022C9.66554 30.8269 9.51131 31.1008 9.42983 31.3996C9.34834 31.6984 9.34214 32.0128 9.41179 32.3146C9.48143 32.6163 9.62474 32.8962 9.82892 33.129C10.0331 33.3619 10.2918 33.5406 10.5819 33.6491L24.0889 38.7139L20.6623 55.8819C20.5845 56.2812 20.6387 56.695 20.8167 57.0609C20.9947 57.4267 21.2869 57.7247 21.6491 57.9099C22.0113 58.0951 22.424 58.1575 22.8248 58.0876C23.2256 58.0177 23.5927 57.8194 23.8709 57.5225L50.1209 29.3975C50.3303 29.1728 50.4812 28.9002 50.5605 28.6035C50.6398 28.3068 50.645 27.9951 50.5756 27.696ZM25.6334 50.1561L28.0873 37.8796C28.1752 37.4442 28.1056 36.9917 27.891 36.6029C27.6763 36.214 27.3306 35.9139 26.9155 35.7561L14.5311 31.1038L34.3639 9.85535L31.9123 22.1319C31.8245 22.5673 31.8941 23.0197 32.1087 23.4086C32.3233 23.7975 32.669 24.0976 33.0842 24.2554L45.4592 28.896L25.6334 50.1561Z" fill="#F0CE90"/>
</svg>
