<svg width="60" height="60" viewBox="0 0 60 60" fill="none" xmlns="http://www.w3.org/2000/svg">
<path opacity="0.2" d="M48.75 33.75C48.75 38.7228 46.7746 43.4919 43.2583 47.0083C39.7419 50.5246 34.9728 52.5 30 52.5C25.0272 52.5 20.2581 50.5246 16.7417 47.0083C13.2254 43.4919 11.25 38.7228 11.25 33.75C11.2517 32.4939 11.3536 31.2399 11.5547 30H48.4453C48.6464 31.2399 48.7483 32.4939 48.75 33.75Z" fill="#F0CE90"/>
<path d="M40.7812 11.1914C37.8862 7.84786 34.6278 4.83712 31.0664 2.21481C30.7511 1.99396 30.3755 1.87549 29.9906 1.87549C29.6057 1.87549 29.2301 1.99396 28.9148 2.21481C25.36 4.83821 22.1079 7.84891 19.2188 11.1914C12.7758 18.5906 9.375 26.3906 9.375 33.75C9.375 39.2201 11.548 44.4661 15.4159 48.334C19.2839 52.202 24.5299 54.375 30 54.375C35.4701 54.375 40.7161 52.202 44.5841 48.334C48.452 44.4661 50.625 39.2201 50.625 33.75C50.625 26.3906 47.2242 18.5906 40.7812 11.1914ZM30 6.09371C33.3188 8.69528 43.3266 17.2828 46.1344 28.125H13.8656C16.6734 17.2875 26.6812 8.69996 30 6.09371ZM30 50.625C25.526 50.62 21.2367 48.8405 18.0731 45.6769C14.9095 42.5133 13.13 38.224 13.125 33.75C13.125 33.125 13.1531 32.5 13.2094 31.875H46.7906C46.8469 32.5 46.875 33.125 46.875 33.75C46.87 38.224 45.0905 42.5133 41.9269 45.6769C38.7633 48.8405 34.474 50.62 30 50.625Z" fill="#F0CE90"/>
</svg>
