<svg width="60" height="60" viewBox="0 0 60 60" fill="none" xmlns="http://www.w3.org/2000/svg">
<path opacity="0.2" d="M52.5 30C52.5 34.4501 51.1804 38.8002 48.7081 42.5003C46.2357 46.2004 42.7217 49.0843 38.6104 50.7873C34.4991 52.4903 29.9751 52.9358 25.6105 52.0677C21.2459 51.1995 17.2368 49.0566 14.0901 45.9099C10.9434 42.7632 8.80051 38.7541 7.93234 34.3895C7.06417 30.025 7.50975 25.501 9.21272 21.3896C10.9157 17.2783 13.7996 13.7643 17.4997 11.2919C21.1998 8.8196 25.5499 7.5 30 7.5C35.9674 7.5 41.6903 9.87053 45.9099 14.0901C50.1295 18.3097 52.5 24.0326 52.5 30Z" fill="#F0CE90"/>
<path d="M30 5.625C25.1791 5.625 20.4664 7.05457 16.458 9.73293C12.4495 12.4113 9.32533 16.2181 7.48045 20.6721C5.63556 25.126 5.15285 30.027 6.09337 34.7553C7.03388 39.4836 9.35538 43.8268 12.7643 47.2357C16.1732 50.6446 20.5164 52.9661 25.2447 53.9066C29.973 54.8472 34.874 54.3644 39.3279 52.5196C43.7819 50.6747 47.5887 47.5505 50.2671 43.542C52.9454 39.5336 54.375 34.8209 54.375 30C54.3682 23.5374 51.7979 17.3415 47.2282 12.7718C42.6585 8.20209 36.4626 5.63182 30 5.625ZM30 50.625C25.9208 50.625 21.9331 49.4154 18.5414 47.1491C15.1496 44.8828 12.5061 41.6616 10.945 37.8928C9.38394 34.1241 8.97549 29.9771 9.77131 25.9763C10.5671 21.9754 12.5315 18.3004 15.4159 15.4159C18.3004 12.5315 21.9754 10.5671 25.9763 9.7713C29.9771 8.97548 34.1241 9.38393 37.8929 10.945C41.6616 12.506 44.8828 15.1496 47.1491 18.5414C49.4154 21.9331 50.625 25.9208 50.625 30C50.6188 35.4682 48.4438 40.7106 44.5772 44.5772C40.7106 48.4438 35.4682 50.6188 30 50.625ZM39.375 34.6875C39.375 36.428 38.6836 38.0972 37.4529 39.3279C36.2222 40.5586 34.553 41.25 32.8125 41.25H31.875V43.125C31.875 43.6223 31.6775 44.0992 31.3258 44.4508C30.9742 44.8025 30.4973 45 30 45C29.5027 45 29.0258 44.8025 28.6742 44.4508C28.3226 44.0992 28.125 43.6223 28.125 43.125V41.25H24.375C23.8777 41.25 23.4008 41.0525 23.0492 40.7008C22.6976 40.3492 22.5 39.8723 22.5 39.375C22.5 38.8777 22.6976 38.4008 23.0492 38.0492C23.4008 37.6975 23.8777 37.5 24.375 37.5H32.8125C33.5584 37.5 34.2738 37.2037 34.8012 36.6762C35.3287 36.1488 35.625 35.4334 35.625 34.6875C35.625 33.9416 35.3287 33.2262 34.8012 32.6988C34.2738 32.1713 33.5584 31.875 32.8125 31.875H27.1875C25.447 31.875 23.7778 31.1836 22.5471 29.9529C21.3164 28.7222 20.625 27.053 20.625 25.3125C20.625 23.572 21.3164 21.9028 22.5471 20.6721C23.7778 19.4414 25.447 18.75 27.1875 18.75H28.125V16.875C28.125 16.3777 28.3226 15.9008 28.6742 15.5492C29.0258 15.1975 29.5027 15 30 15C30.4973 15 30.9742 15.1975 31.3258 15.5492C31.6775 15.9008 31.875 16.3777 31.875 16.875V18.75H35.625C36.1223 18.75 36.5992 18.9475 36.9508 19.2992C37.3025 19.6508 37.5 20.1277 37.5 20.625C37.5 21.1223 37.3025 21.5992 36.9508 21.9508C36.5992 22.3025 36.1223 22.5 35.625 22.5H27.1875C26.4416 22.5 25.7262 22.7963 25.1988 23.3238C24.6713 23.8512 24.375 24.5666 24.375 25.3125C24.375 26.0584 24.6713 26.7738 25.1988 27.3012C25.7262 27.8287 26.4416 28.125 27.1875 28.125H32.8125C34.553 28.125 36.2222 28.8164 37.4529 30.0471C38.6836 31.2778 39.375 32.947 39.375 34.6875Z" fill="#F0CE90"/>
</svg>
