<svg width="60" height="60" viewBox="0 0 60 60" fill="none" xmlns="http://www.w3.org/2000/svg">
<path opacity="0.2" d="M50.625 16.4977V42.7477C33.75 56.7375 26.25 29.5125 9.375 43.5024V17.2524C26.25 3.26255 33.75 30.4875 50.625 16.4977Z" fill="#F0CE90"/>
<path d="M52.069 41.543C52.3867 41.9241 52.5405 42.4156 52.4965 42.9098C52.4526 43.404 52.2146 43.8607 51.8346 44.1797C47.7658 47.5524 44.133 48.75 40.819 48.75C36.4643 48.75 32.658 46.6829 29.1166 44.7657C23.1752 41.5407 18.0447 38.7563 10.5846 44.9391C10.3954 45.0987 10.1766 45.2192 9.9406 45.2937C9.70464 45.3683 9.45626 45.3954 9.20977 45.3735C8.96328 45.3516 8.72357 45.2811 8.50445 45.1661C8.28533 45.0512 8.09114 44.8939 7.93307 44.7035C7.77501 44.5131 7.65619 44.2934 7.58348 44.0568C7.51076 43.8203 7.48558 43.5717 7.5094 43.3254C7.53322 43.0791 7.60555 42.8399 7.72224 42.6217C7.83892 42.4035 7.99765 42.2105 8.18926 42.0539C17.6041 34.254 24.6705 38.0883 30.9072 41.4727C36.8486 44.6954 41.9791 47.4797 49.4393 41.2993C49.8211 40.9848 50.3117 40.834 50.8043 40.8796C51.2969 40.9253 51.7514 41.1637 52.069 41.543ZM49.4275 28.1836C41.9674 34.3665 36.8369 31.5821 30.8955 28.3571C24.6588 24.975 17.5924 21.1407 8.17755 28.9407C7.79935 29.2597 7.56257 29.7152 7.51878 30.208C7.475 30.7008 7.62777 31.191 7.94381 31.5716C8.25984 31.9523 8.71352 32.1926 9.20597 32.2402C9.69843 32.2878 10.1897 32.1389 10.5729 31.8258C18.033 25.643 23.1635 28.4274 29.1049 31.6524C32.6463 33.5719 36.4525 35.6368 40.8072 35.6368C44.1213 35.6368 47.7541 34.4391 51.8229 31.0665C52.0145 30.9099 52.1732 30.7169 52.2899 30.4987C52.4066 30.2805 52.4789 30.0413 52.5027 29.795C52.5265 29.5487 52.5014 29.3001 52.4286 29.0636C52.3559 28.8271 52.2371 28.6073 52.079 28.4169C51.921 28.2265 51.7268 28.0692 51.5077 27.9543C51.2886 27.8393 51.0488 27.7688 50.8024 27.7469C50.5559 27.725 50.3075 27.7521 50.0715 27.8267C49.8356 27.9012 49.6167 28.0217 49.4275 28.1813V28.1836ZM10.5729 18.7032C18.033 12.5227 23.1635 15.3071 29.1049 18.5297C32.6463 20.4516 36.4525 22.5141 40.8072 22.5141C44.1213 22.5141 47.7541 21.3141 51.8229 17.9438C52.0145 17.7872 52.1732 17.5943 52.2899 17.376C52.4066 17.1578 52.4789 16.9187 52.5027 16.6724C52.5265 16.426 52.5014 16.1775 52.4286 15.9409C52.3559 15.7044 52.2371 15.4846 52.079 15.2942C51.921 15.1038 51.7268 14.9466 51.5077 14.8316C51.2886 14.7166 51.0488 14.6462 50.8024 14.6243C50.5559 14.6024 50.3075 14.6295 50.0715 14.704C49.8356 14.7786 49.6167 14.8991 49.4275 15.0586C41.9674 21.2415 36.8369 18.4571 30.8955 15.2321C24.6588 11.8547 17.5924 8.02036 8.17755 15.8204C7.97925 15.9747 7.81399 16.1673 7.69159 16.3867C7.56919 16.6062 7.49215 16.848 7.46504 17.0978C7.43794 17.3476 7.46132 17.6003 7.5338 17.8409C7.60628 18.0815 7.72638 18.3051 7.88696 18.4983C8.04754 18.6916 8.24533 18.8506 8.46858 18.9659C8.69183 19.0813 8.93598 19.1505 9.18652 19.1696C9.43707 19.1887 9.6889 19.1573 9.92705 19.0772C10.1652 18.997 10.3848 18.8699 10.5729 18.7032Z" fill="#F0CE90"/>
</svg>
