<svg width="61" height="60" viewBox="0 0 61 60" fill="none" xmlns="http://www.w3.org/2000/svg">
<path opacity="0.2" d="M51.1109 42.675C50.7468 45.3962 49.4068 47.8926 47.34 49.6998C45.2732 51.507 42.6205 52.5021 39.875 52.5C31.4212 52.5 23.3137 49.1418 17.336 43.164C11.3583 37.1863 8 29.0788 8 20.625C7.9979 17.8795 8.993 15.2268 10.8002 13.16C12.6075 11.0933 15.1038 9.7532 17.825 9.38907C18.2273 9.34128 18.6342 9.42506 18.9849 9.62786C19.3355 9.83066 19.6111 10.1416 19.7703 10.5141L24.7227 21.5766C24.8443 21.8607 24.8939 22.1705 24.8669 22.4784C24.8399 22.7863 24.7372 23.0828 24.568 23.3414L19.5594 29.2969C19.3817 29.565 19.2767 29.8746 19.2545 30.1954C19.2323 30.5163 19.2937 30.8374 19.4328 31.1274C21.3711 35.0953 25.4727 39.1477 29.4523 41.0672C29.7439 41.2057 30.0664 41.2657 30.3883 41.2415C30.7101 41.2172 31.02 41.1095 31.2875 40.9289L37.1469 35.9367C37.4065 35.7639 37.7052 35.6587 38.0158 35.6304C38.3265 35.6022 38.6392 35.6519 38.9258 35.775L49.9789 40.7274C50.3531 40.8855 50.6659 41.161 50.87 41.5122C51.0742 41.8635 51.1587 42.2715 51.1109 42.675Z" fill="#094949"/>
<path d="M34.3133 10.7649C34.377 10.5269 34.4869 10.3038 34.6368 10.1084C34.7866 9.91289 34.9736 9.74887 35.1869 9.62568C35.4002 9.50249 35.6357 9.42253 35.8799 9.39038C36.1241 9.35823 36.3723 9.37451 36.6102 9.4383C40.0861 10.3452 43.2575 12.1623 45.7976 14.7024C48.3377 17.2426 50.1548 20.4139 51.0617 23.8899C51.1255 24.1278 51.1418 24.3759 51.1097 24.6201C51.0775 24.8644 50.9976 25.0998 50.8744 25.3132C50.7512 25.5265 50.5872 25.7134 50.3917 25.8633C50.1962 26.0132 49.9731 26.1231 49.7352 26.1867C49.5768 26.2283 49.4138 26.2496 49.25 26.25C48.8368 26.25 48.4352 26.1135 48.1076 25.8618C47.78 25.61 47.5447 25.2571 47.4383 24.8578C46.6986 22.0203 45.2156 19.4314 43.1422 17.3579C41.0687 15.2844 38.4797 13.8014 35.6422 13.0617C35.404 12.9983 35.1807 12.8886 34.985 12.7388C34.7893 12.589 34.625 12.4021 34.5016 12.1888C34.3781 11.9755 34.298 11.7399 34.2657 11.4956C34.2334 11.2512 34.2496 11.0029 34.3133 10.7649ZM33.7672 20.5617C36.9992 21.4242 39.0758 23.5008 39.9383 26.7328C40.0447 27.1321 40.28 27.485 40.6076 27.7368C40.9352 27.9885 41.3368 28.125 41.75 28.125C41.9138 28.1246 42.0768 28.1033 42.2352 28.0617C42.4731 27.9981 42.6962 27.8882 42.8917 27.7383C43.0872 27.5884 43.2512 27.4015 43.3744 27.1882C43.4976 26.9748 43.5775 26.7394 43.6097 26.4951C43.6418 26.2509 43.6255 26.0028 43.5617 25.7649C42.3617 21.2742 39.2258 18.1383 34.7352 16.9383C34.2547 16.8099 33.7429 16.8777 33.3123 17.1267C32.8818 17.3757 32.5678 17.7855 32.4395 18.266C32.3111 18.7465 32.3789 19.2583 32.6279 19.6889C32.8769 20.1194 33.2867 20.4334 33.7672 20.5617ZM52.9719 42.9094C52.554 46.0852 50.9943 49.0004 48.5842 51.1103C46.174 53.2203 43.0782 54.3808 39.875 54.375C21.2656 54.375 6.12502 39.2344 6.12502 20.625C6.11928 17.4218 7.27976 14.326 9.38971 11.9159C11.4997 9.50572 14.4148 7.94605 17.5906 7.52814C18.3937 7.43008 19.207 7.59438 19.9091 7.99651C20.6111 8.39864 21.1643 9.01704 21.486 9.75939L26.436 20.8102V20.8383C26.6823 21.4065 26.784 22.027 26.732 22.6441C26.6801 23.2612 26.4761 23.8559 26.1383 24.375C26.0961 24.4383 26.0516 24.4969 26.0047 24.5555L21.125 30.3399C22.8805 33.907 26.6117 37.6055 30.2258 39.3656L35.9305 34.5117C35.9865 34.4646 36.0452 34.4208 36.1063 34.3805C36.6249 34.0346 37.2216 33.8234 37.8424 33.7661C38.4632 33.7088 39.0885 33.8072 39.6617 34.0524L39.6922 34.0664L50.7336 39.0141C51.4773 39.3346 52.0972 39.8873 52.5006 40.5895C52.9041 41.2916 53.0694 42.1055 52.9719 42.9094ZM49.25 42.4406C49.25 42.4406 49.2336 42.4406 49.2242 42.4406L38.2086 37.507L32.5016 42.361C32.4462 42.4078 32.3883 42.4517 32.3281 42.4922C31.7885 42.8522 31.1647 43.0661 30.5177 43.1129C29.8707 43.1598 29.2226 43.0379 28.6367 42.7594C24.2469 40.6383 19.8711 36.2953 17.7477 31.9524C17.4665 31.3708 17.3403 30.7264 17.3814 30.0817C17.4224 29.437 17.6294 28.8139 17.9821 28.2727C18.0218 28.2091 18.0665 28.1488 18.1156 28.0922L23 22.3008L18.0781 11.2852C18.0772 11.2758 18.0772 11.2664 18.0781 11.257C15.8053 11.5535 13.7185 12.6684 12.2085 14.3928C10.6985 16.1172 9.86888 18.3329 9.87502 20.625C9.88371 28.5788 13.0472 36.2044 18.6714 41.8286C24.2956 47.4528 31.9212 50.6163 39.875 50.625C42.1657 50.6329 44.3808 49.8062 46.1063 48.2994C47.8317 46.7927 48.9492 44.7092 49.25 42.4383V42.4406Z" fill="#094949"/>
</svg>
