<svg width="61" height="60" viewBox="0 0 61 60" fill="none" xmlns="http://www.w3.org/2000/svg">
<path opacity="0.2" d="M51.6737 28.0312L43.5315 36.1734C42.1969 37.5098 40.5384 38.477 38.7181 38.9807C36.8979 39.4843 34.9781 39.5071 33.1463 39.0469C33.0737 39.1266 33.001 39.2039 32.9237 39.2812L24.7815 47.4234C23.7712 48.4583 22.5656 49.2824 21.2344 49.8479C19.9033 50.4134 18.4732 50.7091 17.0269 50.7178C15.5807 50.7265 14.1471 50.4481 12.8092 49.8986C11.4714 49.3492 10.2559 48.5397 9.23323 47.517C8.21056 46.4943 7.40104 45.2789 6.8516 43.941C6.30216 42.6032 6.02372 41.1696 6.03242 39.7233C6.04113 38.2771 6.33681 36.8469 6.90231 35.5158C7.46782 34.1847 8.29191 32.979 9.32682 31.9687L17.469 23.8266C18.8039 22.4906 20.4624 21.5236 22.2826 21.02C24.1027 20.5163 26.0224 20.4933 27.8542 20.9531C27.9268 20.8734 27.9995 20.7961 28.0885 20.7187L36.219 12.5766C38.2768 10.5677 41.0434 9.45091 43.9191 9.46822C46.7948 9.48553 49.5478 10.6356 51.5812 12.669C53.6147 14.7025 54.7647 17.4555 54.782 20.3311C54.7993 23.2068 53.6825 25.9735 51.6737 28.0312Z" fill="#094949"/>
<path d="M56.7504 20.6789C56.6563 23.9429 55.3142 27.0466 53.0004 29.3508L44.8558 37.5C43.6696 38.6927 42.2586 39.6382 40.7045 40.2819C39.1504 40.9256 37.4841 41.2547 35.8019 41.25H35.7902C34.0794 41.2488 32.3861 40.9047 30.8104 40.2381C29.2348 39.5715 27.8087 38.5959 26.6165 37.3689C25.4242 36.1419 24.4899 34.6884 23.8688 33.0942C23.2478 31.5001 22.9524 29.7977 23.0004 28.0875C23.0143 27.5902 23.2253 27.1188 23.5868 26.7771C23.9483 26.4354 24.4308 26.2512 24.9281 26.2652C25.4254 26.2792 25.8967 26.4902 26.2385 26.8517C26.5802 27.2132 26.7643 27.6957 26.7504 28.193C26.7162 29.4022 26.9248 30.6059 27.3638 31.7332C27.8028 32.8604 28.4633 33.8882 29.3062 34.7558C30.1491 35.6234 31.1574 36.3133 32.2715 36.7846C33.3856 37.256 34.5829 37.4992 35.7926 37.5C36.9817 37.503 38.1596 37.2703 39.2583 36.8153C40.357 36.3604 41.3545 35.6921 42.1933 34.8492L50.3379 26.7047C52.0182 25.0031 52.9572 22.7059 52.9497 20.3145C52.9422 17.923 51.9889 15.6317 50.2979 13.9407C48.6069 12.2497 46.3156 11.2964 43.9242 11.2889C41.5328 11.2814 39.2355 12.2204 37.534 13.9008L34.9558 16.4789C34.6013 16.8157 34.1293 17.0007 33.6404 16.9944C33.1515 16.9881 32.6843 16.7911 32.3386 16.4454C31.9928 16.0996 31.7958 15.6325 31.7895 15.1436C31.7833 14.6546 31.9683 14.1826 32.305 13.8281L34.8832 11.25C36.0726 10.0601 37.4848 9.11627 39.0391 8.4723C40.5934 7.82834 42.2594 7.49689 43.9418 7.49689C45.6242 7.49689 47.2901 7.82834 48.8444 8.4723C50.3987 9.11627 51.8109 10.0601 53.0004 11.25C54.2324 12.485 55.2002 13.9579 55.8448 15.5789C56.4895 17.1998 56.7976 18.9351 56.7504 20.6789ZM26.0472 43.514L23.4691 46.0922C22.6282 46.9387 21.6275 47.6095 20.525 48.0658C19.4225 48.5221 18.2404 48.7546 17.0472 48.75C15.2573 48.7485 13.508 48.2166 12.0203 47.2214C10.5326 46.2261 9.37323 44.8122 8.68876 43.1583C8.00428 41.5045 7.82538 39.6848 8.17466 37.9293C8.52395 36.1738 9.38574 34.5612 10.6511 33.2953L18.7816 25.1508C20.0622 23.8634 21.7003 22.9909 23.4832 22.6464C25.266 22.302 27.1112 22.5016 28.7792 23.2193C30.4471 23.9371 31.8607 25.1397 32.8364 26.6712C33.8121 28.2026 34.3047 29.992 34.2504 31.807C34.2435 32.0533 34.2852 32.2985 34.3732 32.5286C34.4611 32.7587 34.5935 32.9692 34.7629 33.1481C34.9322 33.3271 35.1351 33.4709 35.3601 33.5713C35.585 33.6718 35.8275 33.7269 36.0738 33.7336H36.1254C36.6138 33.7338 37.0831 33.5433 37.4333 33.2028C37.7835 32.8622 37.9869 32.3984 38.0004 31.9101C38.0451 30.1694 37.7357 28.4378 37.0911 26.8202C36.4465 25.2026 35.48 23.7328 34.2504 22.5C31.8484 20.0991 28.5914 18.7504 25.1953 18.7504C21.7992 18.7504 18.5421 20.0991 16.1402 22.5L8.00036 30.6445C6.21028 32.4339 4.99079 34.7137 4.49601 37.1959C4.00123 39.6781 4.25337 42.2513 5.22056 44.5903C6.18775 46.9293 7.82658 48.929 9.92995 50.3369C12.0333 51.7447 14.5068 52.4975 17.0379 52.5C18.7204 52.5048 20.3871 52.1759 21.9416 51.5322C23.4962 50.8885 24.9076 49.9429 26.0941 48.75L28.6722 46.1719C28.9757 45.8144 29.1342 45.3563 29.1166 44.8878C29.0989 44.4193 28.9064 43.9744 28.5769 43.6408C28.2475 43.3072 27.805 43.1092 27.3367 43.0857C26.8685 43.0623 26.4084 43.2151 26.0472 43.514Z" fill="#094949"/>
</svg>
