<svg width="61" height="60" viewBox="0 0 61 60" fill="none" xmlns="http://www.w3.org/2000/svg">
<path opacity="0.2" d="M53 22.5L34.5898 35.625H26.4102L8 22.5L30.5 7.5L53 22.5Z" fill="#094949"/>
<path d="M54.0406 20.9391L31.5406 5.93906C31.2325 5.73349 30.8704 5.62378 30.5 5.62378C30.1296 5.62378 29.7675 5.73349 29.4594 5.93906L6.95938 20.9391C6.70253 21.1104 6.49197 21.3426 6.34641 21.6149C6.20086 21.8872 6.1248 22.1912 6.125 22.5V46.875C6.125 47.8696 6.52009 48.8234 7.22335 49.5266C7.92661 50.2299 8.88044 50.625 9.875 50.625H51.125C52.1196 50.625 53.0734 50.2299 53.7766 49.5266C54.4799 48.8234 54.875 47.8696 54.875 46.875V22.5C54.8752 22.1912 54.7991 21.8872 54.6536 21.6149C54.508 21.3426 54.2975 21.1104 54.0406 20.9391ZM30.5 9.75234L49.6977 22.5516L33.9945 33.75H27.0102L11.307 22.5516L30.5 9.75234ZM9.875 46.875V26.1398L25.3203 37.1555C25.6383 37.3826 26.0194 37.5047 26.4102 37.5047H34.5898C34.9806 37.5047 35.3617 37.3826 35.6797 37.1555L51.125 26.1398V46.875H9.875Z" fill="#094949"/>
</svg>
