<svg width="61" height="60" viewBox="0 0 61 60" fill="none" xmlns="http://www.w3.org/2000/svg">
<path opacity="0.2" d="M30.5 5.625C25.5272 5.625 20.7581 7.60044 17.2417 11.1167C13.7254 14.6331 11.75 19.4022 11.75 24.375C11.75 41.25 30.5 54.375 30.5 54.375C30.5 54.375 49.25 41.25 49.25 24.375C49.25 19.4022 47.2746 14.6331 43.7583 11.1167C40.2419 7.60044 35.4728 5.625 30.5 5.625ZM30.5 31.875C29.0166 31.875 27.5666 31.4351 26.3332 30.611C25.0999 29.7869 24.1386 28.6156 23.5709 27.2451C23.0032 25.8747 22.8547 24.3667 23.1441 22.9118C23.4335 21.457 24.1478 20.1206 25.1967 19.0717C26.2456 18.0228 27.582 17.3085 29.0368 17.0191C30.4917 16.7297 31.9997 16.8782 33.3701 17.4459C34.7406 18.0136 35.9119 18.9749 36.736 20.2082C37.5601 21.4416 38 22.8916 38 24.375C38 26.3641 37.2098 28.2718 35.8033 29.6783C34.3968 31.0848 32.4891 31.875 30.5 31.875Z" fill="#094949"/>
<path d="M47.375 52.5H35.7828C37.7301 50.7612 39.5665 48.9021 41.2812 46.9336C47.7148 39.5344 51.125 31.7344 51.125 24.375C51.125 18.9049 48.952 13.6589 45.0841 9.79092C41.2161 5.92299 35.9701 3.75 30.5 3.75C25.0299 3.75 19.7839 5.92299 15.9159 9.79092C12.048 13.6589 9.875 18.9049 9.875 24.375C9.875 31.7344 13.2758 39.5344 19.7188 46.9336C21.4335 48.9021 23.2699 50.7612 25.2172 52.5H13.625C13.1277 52.5 12.6508 52.6975 12.2992 53.0492C11.9475 53.4008 11.75 53.8777 11.75 54.375C11.75 54.8723 11.9475 55.3492 12.2992 55.7008C12.6508 56.0525 13.1277 56.25 13.625 56.25H47.375C47.8723 56.25 48.3492 56.0525 48.7008 55.7008C49.0525 55.3492 49.25 54.8723 49.25 54.375C49.25 53.8777 49.0525 53.4008 48.7008 53.0492C48.3492 52.6975 47.8723 52.5 47.375 52.5ZM13.625 24.375C13.625 19.8995 15.4029 15.6072 18.5676 12.4426C21.7322 9.2779 26.0245 7.5 30.5 7.5C34.9755 7.5 39.2677 9.2779 42.4324 12.4426C45.5971 15.6072 47.375 19.8995 47.375 24.375C47.375 37.7883 34.3742 48.9844 30.5 52.0312C26.6258 48.9844 13.625 37.7883 13.625 24.375ZM39.875 24.375C39.875 22.5208 39.3252 20.7082 38.295 19.1665C37.2649 17.6248 35.8007 16.4232 34.0877 15.7136C32.3746 15.0041 30.4896 14.8184 28.671 15.1801C26.8525 15.5419 25.182 16.4348 23.8709 17.7459C22.5598 19.057 21.6669 20.7275 21.3051 22.546C20.9434 24.3646 21.1291 26.2496 21.8386 27.9627C22.5482 29.6757 23.7498 31.1399 25.2915 32.17C26.8332 33.2002 28.6458 33.75 30.5 33.75C32.9864 33.75 35.371 32.7623 37.1291 31.0041C38.8873 29.246 39.875 26.8614 39.875 24.375ZM24.875 24.375C24.875 23.2625 25.2049 22.1749 25.823 21.2499C26.4411 20.3249 27.3196 19.6039 28.3474 19.1782C29.3752 18.7524 30.5062 18.641 31.5974 18.8581C32.6885 19.0751 33.6908 19.6109 34.4775 20.3975C35.2641 21.1842 35.7999 22.1865 36.0169 23.2776C36.234 24.3688 36.1226 25.4998 35.6968 26.5276C35.2711 27.5554 34.5501 28.4339 33.6251 29.052C32.7001 29.6701 31.6125 30 30.5 30C29.0082 30 27.5774 29.4074 26.5225 28.3525C25.4676 27.2976 24.875 25.8668 24.875 24.375Z" fill="#094949"/>
</svg>
