<svg width="61" height="60" viewBox="0 0 61 60" fill="none" xmlns="http://www.w3.org/2000/svg">
<path opacity="0.2" d="M53 13.125V46.875C53 47.3723 52.8025 47.8492 52.4508 48.2008C52.0992 48.5525 51.6223 48.75 51.125 48.75H9.875C9.37772 48.75 8.90081 48.5525 8.54918 48.2008C8.19754 47.8492 8 47.3723 8 46.875V13.125C8 12.6277 8.19754 12.1508 8.54918 11.7992C8.90081 11.4475 9.37772 11.25 9.875 11.25H51.125C51.6223 11.25 52.0992 11.4475 52.4508 11.7992C52.8025 12.1508 53 12.6277 53 13.125Z" fill="#094949"/>
<path d="M51.125 9.375H9.875C8.88044 9.375 7.92661 9.77009 7.22335 10.4733C6.52009 11.1766 6.125 12.1304 6.125 13.125V46.875C6.125 47.8696 6.52009 48.8234 7.22335 49.5266C7.92661 50.2299 8.88044 50.625 9.875 50.625H51.125C52.1196 50.625 53.0734 50.2299 53.7766 49.5266C54.4799 48.8234 54.875 47.8696 54.875 46.875V13.125C54.875 12.1304 54.4799 11.1766 53.7766 10.4733C53.0734 9.77009 52.1196 9.375 51.125 9.375ZM51.125 46.875H9.875V13.125H51.125V46.875ZM43.625 22.5C43.625 22.9973 43.4275 23.4742 43.0758 23.8258C42.7242 24.1775 42.2473 24.375 41.75 24.375H19.25C18.7527 24.375 18.2758 24.1775 17.9242 23.8258C17.5725 23.4742 17.375 22.9973 17.375 22.5C17.375 22.0027 17.5725 21.5258 17.9242 21.1742C18.2758 20.8225 18.7527 20.625 19.25 20.625H41.75C42.2473 20.625 42.7242 20.8225 43.0758 21.1742C43.4275 21.5258 43.625 22.0027 43.625 22.5ZM43.625 30C43.625 30.4973 43.4275 30.9742 43.0758 31.3258C42.7242 31.6775 42.2473 31.875 41.75 31.875H19.25C18.7527 31.875 18.2758 31.6775 17.9242 31.3258C17.5725 30.9742 17.375 30.4973 17.375 30C17.375 29.5027 17.5725 29.0258 17.9242 28.6742C18.2758 28.3225 18.7527 28.125 19.25 28.125H41.75C42.2473 28.125 42.7242 28.3225 43.0758 28.6742C43.4275 29.0258 43.625 29.5027 43.625 30ZM43.625 37.5C43.625 37.9973 43.4275 38.4742 43.0758 38.8258C42.7242 39.1775 42.2473 39.375 41.75 39.375H19.25C18.7527 39.375 18.2758 39.1775 17.9242 38.8258C17.5725 38.4742 17.375 37.9973 17.375 37.5C17.375 37.0027 17.5725 36.5258 17.9242 36.1742C18.2758 35.8225 18.7527 35.625 19.25 35.625H41.75C42.2473 35.625 42.7242 35.8225 43.0758 36.1742C43.4275 36.5258 43.625 37.0027 43.625 37.5Z" fill="#094949"/>
</svg>
