<svg width="138" height="38" viewBox="0 0 138 38" fill="none" xmlns="http://www.w3.org/2000/svg">
<g clip-path="url(#clip0_285_1182)">
<path d="M28.8315 36.5563V1.44368H22.7191V0H41.2434C45.3408 0 48.8464 0.565865 51.7603 1.68309C54.6742 2.80756 57.1086 5.00573 59.0637 8.28484C61.0112 11.564 61.9925 15.1187 61.9925 18.9565C61.9925 23.0191 60.9213 26.6464 58.7715 29.8385C56.6292 33.0305 54.1498 35.1924 51.3558 36.3169C48.5543 37.4414 45.1461 38 41.1311 38H22.7266V36.5563H28.839H28.8315ZM35.7978 1.44368V36.5563H40.8914C43.5655 36.5563 45.7453 36.3169 47.4307 35.8454C49.1161 35.3738 50.5094 34.3436 51.618 32.7549C52.7191 31.1661 53.4682 29.1565 53.8577 26.719C54.2472 24.2814 54.4419 21.0966 54.4419 17.1718C54.4419 12.449 53.8202 8.92325 52.5843 6.60176C51.3483 4.28026 49.8277 2.83658 48.0374 2.27797C46.2397 1.71936 43.9026 1.44368 41.0187 1.44368H35.8127H35.7978Z" fill="white"/>
<path d="M6.40449 36.5563V1.44368H0V0H19.8352V1.44368H13.3708V36.5563H19.8352V38H0V36.5563H6.40449Z" fill="white"/>
<path d="M65.5206 0H98.9663L99.9925 12.9206H98.5019C97.588 8.59679 96.367 5.60061 94.8614 3.93929C93.3483 2.27797 91.3633 1.44368 88.9064 1.44368H85.7154V36.5563H92.7341V38H71.7528V36.5563H78.7715V1.44368H75.5805C73.1236 1.44368 71.1386 2.27797 69.6255 3.93929C68.1124 5.60061 66.8989 8.59679 65.985 12.9206H64.4944L65.5206 0Z" fill="white"/>
<path d="M103.528 0H136.974L138 12.9206H136.509C135.596 8.59679 134.375 5.60061 132.869 3.93929C131.356 2.27797 129.371 1.44368 126.914 1.44368H123.723V36.5563H130.742V38H109.76V36.5563H116.779V1.44368H113.588C111.131 1.44368 109.146 2.27797 107.633 3.93929C106.12 5.60061 104.906 8.59679 103.993 12.9206H102.502L103.528 0Z" fill="white"/>
</g>
<defs>
<clipPath id="clip0_285_1182">
<rect width="138" height="38" fill="white"/>
</clipPath>
</defs>
</svg>
